<svg width="113" height="35" viewBox="0 0 113 35" fill="none" xmlns="http://www.w3.org/2000/svg">
<path d="M17.0441 0.41748C7.74537 0.41748 0.206909 7.95573 0.206909 17.2544C0.206909 26.5542 7.74537 34.092 17.0441 34.092C26.3432 34.092 33.8813 26.5542 33.8813 17.2544C33.8813 7.95633 26.3438 0.41748 17.0441 0.41748ZM24.7655 24.7012C24.4631 25.1972 23.8169 25.3527 23.3225 25.0505C19.3687 22.6339 14.3921 22.0881 8.53129 23.4269C7.96652 23.5564 7.40356 23.2023 7.27489 22.6378C7.14561 22.073 7.49806 21.51 8.06424 21.3814C14.478 19.915 19.9795 20.5462 24.4175 23.258C24.9121 23.5616 25.0691 24.2066 24.7655 24.7012ZM26.8263 20.1173C26.4455 20.7352 25.6377 20.929 25.0206 20.5496C20.4958 17.7682 13.5961 16.9625 8.24298 18.5875C7.54872 18.7972 6.81547 18.4059 6.60476 17.7129C6.39566 17.0186 6.78713 16.2868 7.48017 16.0757C13.5949 14.2203 21.1965 15.119 26.3939 18.3128C27.0111 18.6928 27.2063 19.5009 26.8263 20.1173ZM27.0033 15.3434C21.5759 12.1202 12.6236 11.8239 7.44255 13.3964C6.61059 13.6487 5.73075 13.179 5.47863 12.347C5.2265 11.5147 5.69577 10.6354 6.52835 10.3825C12.4758 8.577 22.3629 8.92583 28.6105 12.6347C29.3589 13.0789 29.6044 14.0454 29.1608 14.7927C28.7185 15.541 27.7492 15.7877 27.0033 15.3434ZM46.0153 15.961C43.1082 15.2678 42.5907 14.7813 42.5907 13.7589C42.5907 12.793 43.5001 12.143 44.8524 12.143C46.1633 12.143 47.4631 12.6366 48.8259 13.6527C48.8671 13.6835 48.9188 13.6957 48.9696 13.6877C49.0205 13.6801 49.0655 13.6521 49.0953 13.6101L50.5148 11.6092C50.5731 11.5267 50.5572 11.4131 50.4786 11.3502C48.8566 10.0487 47.0302 9.41601 44.8954 9.41601C41.7565 9.41601 39.564 11.2997 39.564 13.9949C39.564 16.8851 41.4553 17.9085 44.7237 18.6984C47.5056 19.3392 47.975 19.8761 47.975 20.8357C47.975 21.8991 47.0256 22.5602 45.4978 22.5602C43.8009 22.5602 42.4168 21.9886 40.8684 20.6477C40.83 20.6145 40.7773 20.5995 40.7287 20.6023C40.6774 20.6065 40.6306 20.6302 40.598 20.6694L39.0064 22.5636C38.9397 22.6422 38.9481 22.7596 39.0253 22.8276C40.8268 24.4358 43.0425 25.2853 45.4335 25.2853C48.8158 25.2853 51.0015 23.4372 51.0015 20.5767C51.0076 18.162 49.562 16.825 46.0214 15.9637L46.0153 15.961ZM58.6538 13.094C57.1877 13.094 55.9851 13.6714 54.9935 14.8546V13.5228C54.9935 13.4177 54.9083 13.332 54.8033 13.332H52.2002C52.0951 13.332 52.01 13.4177 52.01 13.5228V28.3211C52.01 28.4262 52.0951 28.5119 52.2002 28.5119H54.8033C54.9083 28.5119 54.9935 28.4262 54.9935 28.3211V23.6499C55.9853 24.7629 57.1881 25.3068 58.6538 25.3068C61.3779 25.3068 64.1356 23.2098 64.1356 19.2011C64.1397 15.1914 61.3811 13.0938 58.6568 13.0938L58.6538 13.094ZM61.1087 19.2011C61.1087 21.2424 59.8513 22.6669 58.0508 22.6669C56.2709 22.6669 54.9282 21.1777 54.9282 19.2011C54.9282 17.2247 56.2709 15.7353 58.0508 15.7353C59.8221 15.7351 61.1087 17.1925 61.1087 19.2011ZM71.2038 13.094C67.6956 13.094 64.9471 15.7954 64.9471 19.2447C64.9471 22.6565 67.6767 25.3295 71.1608 25.3295C74.6815 25.3295 77.4384 22.6372 77.4384 19.2011C77.4384 15.7769 74.7002 13.094 71.2038 13.094ZM71.2038 22.6872C69.3378 22.6872 67.931 21.1879 67.931 19.2001C67.931 17.2038 69.2891 15.7552 71.1608 15.7552C73.0389 15.7552 74.4551 17.2544 74.4551 19.2437C74.4551 21.2396 73.0877 22.6872 71.2038 22.6872ZM84.93 13.332H82.0656V10.4034C82.0656 10.2985 81.9807 10.2128 81.8756 10.2128H79.2729C79.1675 10.2128 79.0821 10.2985 79.0821 10.4034V13.332H77.8305C77.7257 13.332 77.6409 13.4177 77.6409 13.5228V15.76C77.6409 15.8649 77.7257 15.9508 77.8305 15.9508H79.0821V21.7394C79.0821 24.0788 80.2464 25.2648 82.5427 25.2648C83.4764 25.2648 84.251 25.072 84.9811 24.658C85.0404 24.6248 85.0772 24.5609 85.0772 24.4929V22.3625C85.0772 22.2968 85.043 22.2347 84.9867 22.2003C84.93 22.1647 84.8594 22.1629 84.8013 22.1916C84.2999 22.444 83.8151 22.5604 83.2733 22.5604C82.4381 22.5604 82.0656 22.1812 82.0656 21.3313V15.9518H84.93C85.0352 15.9518 85.1198 15.8662 85.1198 15.761V13.524C85.1238 13.4189 85.0394 13.3332 84.9328 13.3332L84.93 13.332ZM94.9105 13.3435V12.9838C94.9105 11.9256 95.3163 11.4537 96.2263 11.4537C96.7689 11.4537 97.2048 11.5615 97.693 11.7244C97.7531 11.7433 97.8158 11.7338 97.8647 11.6978C97.9149 11.6618 97.9433 11.6041 97.9433 11.543V9.34946C97.9433 9.26561 97.8894 9.19143 97.8086 9.16669C97.2929 9.01328 96.633 8.85585 95.645 8.85585C93.2408 8.85585 91.9699 10.2098 91.9699 12.7698V13.3207H90.7193C90.6143 13.3207 90.5283 13.4064 90.5283 13.5113V15.76C90.5283 15.8649 90.6143 15.9508 90.7193 15.9508H91.9699V24.8795C91.9699 24.9847 92.0547 25.0703 92.1597 25.0703H94.7628C94.8679 25.0703 94.9536 24.9847 94.9536 24.8795V15.9514H97.384L101.107 24.878C100.684 25.8159 100.269 26.0025 99.7014 26.0025C99.2427 26.0025 98.7598 25.8655 98.266 25.5953C98.2195 25.5698 98.1645 25.5656 98.1144 25.5811C98.0647 25.5985 98.0229 25.6355 98.0018 25.6838L97.1196 27.6194C97.0775 27.7109 97.1135 27.8182 97.2016 27.8657C98.1226 28.3645 98.954 28.5774 99.9816 28.5774C101.904 28.5774 102.966 27.6821 103.903 25.2734L108.419 13.604C108.441 13.5453 108.435 13.479 108.399 13.4269C108.363 13.3752 108.305 13.3441 108.242 13.3441H105.532C105.451 13.3441 105.378 13.3957 105.352 13.4719L102.576 21.4013L99.5351 13.4667C99.5074 13.3929 99.4362 13.3441 99.3574 13.3441L94.9105 13.3435ZM89.1241 13.332H86.521C86.4158 13.332 86.3302 13.4177 86.3302 13.5228V24.8796C86.3302 24.9847 86.4158 25.0704 86.521 25.0704H89.1241C89.229 25.0704 89.3149 24.9847 89.3149 24.8796V13.5236C89.3149 13.4985 89.31 13.4737 89.3005 13.4505C89.2909 13.4273 89.2768 13.4062 89.259 13.3885C89.2413 13.3708 89.2202 13.3567 89.197 13.3472C89.1738 13.3376 89.1492 13.3319 89.1241 13.332ZM87.8373 8.16102C86.8061 8.16102 85.9693 8.9958 85.9693 10.027C85.9693 11.0589 86.8063 11.8947 87.8373 11.8947C88.8682 11.8947 89.7041 11.0589 89.7041 10.027C89.7041 8.99601 88.8677 8.16102 87.8383 8.16102H87.8373ZM110.641 16.9834C109.611 16.9834 108.809 16.1561 108.809 15.1514C108.809 14.1467 109.622 13.3099 110.651 13.3099C111.681 13.3099 112.483 14.1371 112.483 15.1409C112.483 16.1456 111.671 16.9834 110.641 16.9834ZM110.651 13.4921C109.713 13.4921 109.003 14.238 109.003 15.1514C109.003 16.0644 109.708 16.8003 110.642 16.8003C111.58 16.8003 112.291 16.0549 112.291 15.1409C112.291 14.2279 111.584 13.4921 110.651 13.4921ZM111.057 15.3293L111.576 16.0547H111.139L110.672 15.3892H110.271V16.0547H109.905V14.1318H110.763C111.21 14.1318 111.503 14.3604 111.503 14.7453C111.505 15.0605 111.323 15.2531 111.059 15.3293L111.057 15.3293ZM110.748 14.4618H110.271V15.07H110.748C110.986 15.07 111.128 14.9536 111.128 14.7656C111.128 14.5677 110.985 14.4618 110.748 14.4618Z" fill="black"/>
</svg>
